# xmcd
#
# Track frame offsets: 
#        150
#        14793
#        26111
#        38415
#        51190
#        58581
#        74256
#        86988
#        95054
#        110946
#        128856
#        144336
#        162589
#
# Disc length: 2364 seconds
#
# Revision: 2
# Processed by: cddbd v1.5.2PL0 Copyright (c) Steve Scherf et al.
# Submitted via: ExactAudioCopyFreeDBPlugin 1.0
#
DISCID=c2093a0d
DTITLE=岸部眞明 - GROWING UP
DYEAR=1999
DGENRE=Ag Guitar Solo
TTITLE0=風、走る
TTITLE1=Growing up (for Chishu)
TTITLE2=Smoker
TTITLE3=J-Blues
TTITLE4=ジャン
TTITLE5=ビキニとサングラス
TTITLE6=夏の終わりの海
TTITLE7=Big Man
TTITLE8=竹田の子守唄
TTITLE9=Midnight lonliness
TTITLE10=Megamouth
TTITLE11=Winter
TTITLE12=花
EXTD=
EXTT0=
EXTT1=
EXTT2=
EXTT3=
EXTT4=
EXTT5=
EXTT6=
EXTT7=
EXTT8=
EXTT9=
EXTT10=
EXTT11=
EXTT12=
PLAYORDER=
